<svg xmlns="http://www.w3.org/2000/svg" width="512" height="512"><path d="M418 132a284 284 0 0 1-124 264c-15 11-32 5-48 0-19-6-40-3-60-3-19 2-40 13-44 34-7 10 7 25 8 7 12-21 38-21 59-19 44 4 79 34 115 57 16 10 34 24 55 21 17-10 31-26 39-45-2-14-8-10-16-1-17 12-35-7-52-11-14-7-40-16-46-23 28-10 48-33 67-53 37-44 64-97 75-153 3-23 6-52-15-67l-13-8z" style="fill:#d955d9"/><path d="M219 20c-32 1-60 21-81 44-43 46-69 106-77 168-2 25-4 54 11 76 6 9 27 38 37 38-8-12-8-60-7-73 8-48 22-96 48-138 22-36 56-68 99-75 13-2 19-3 31-3-6-12-9-14-18-21-13-9-27-16-43-16Z" style="fill:#d955d9;"/><path d="M307 74c-47-3-69 11-91 30-50 45-81 107-90 173-3 28-6 62 14 85-3 6-28 5-37 16-9 9-20 26-11 37 6-10 22-30 42-28 40-4 77 16 109 38 26 16 49 40 81 42 15-6 27-20 36-33 9-5 7-28-2-22-12 21-33 9-50 1s-46-19-56-27c27-9 46-31 65-51 40-46 69-102 78-162 8-35-17-65-26-75-19-17-25-21-62-24zm18 35c37 0 43 33 40 65-11 72-47 141-106 185-13 8-29 20-45 15-15-9-46 1-48-22-3-36 9-72 19-106 18-51 49-103 99-127 13-6 27-10 41-10z" style="fill:#800080;"/></svg>
